<?xml version="1.0" encoding="utf-8"?>
<!-- Generator: Adobe Illustrator 22.1.0, SVG Export Plug-In . SVG Version: 6.00 Build 0)  -->
<svg version="1.1" id="Layer_1" xmlns="http://www.w3.org/2000/svg" xmlns:xlink="http://www.w3.org/1999/xlink" x="0px" y="0px"
    viewBox="0 0 1395 505.6" style="enable-background:new 0 0 1395 505.6;" xml:space="preserve">
<style type="text/css">
    .st0{fill:#FFFFFF;}
</style>
<g>
    <g>
        <g>
            <g>
                <g>
                    <g>
                        <g>
                            <g>
                                <path class="st0" d="M781.7,281.8l67.1-65.5h-66.1v-30.9h113v31.4L828.6,282H897v30.9H781.7V281.8z"/>
                                <g>
                                    <rect x="734.1" y="143.4" class="st0" width="34.9" height="31.7"/>
                                    <rect x="733.6" y="185.7" class="st0" width="34.9" height="127.5"/>
                                </g>
                                <path class="st0" d="M310.9,249.1c0-36.7,29.3-66.3,66.1-66.3c36.7,0,66.1,29.6,66.1,66.3c0,36.7-29.3,66.3-66.1,66.3
                                    C340.3,315.4,310.9,285.8,310.9,249.1z M409.1,249.1c0-18.1-14.3-33.2-32.1-33.2c-18.1,0-31.9,15-31.9,33.2
                                    c0,18.1,13.8,33.2,31.9,33.2C394.9,282.3,409.1,267.2,409.1,249.1z"/>
                                <path class="st0" d="M600.8,185.4h34.7v14.3c8.2-10.5,20.7-16.8,35.2-16.8c30.1,0,48.2,19.4,48.2,52.3v77.8h-35.5v-73.2
                                    c0-17.1-7.9-27-23.5-27c-13.3,0-24.2,9.2-24.2,30.6v69.6h-34.9V185.4z"/>
                                <path class="st0" d="M899,249.1c0-45.1,33.2-66.3,62-66.3c16.6,0,29.6,6.1,38,15.1v-12.5h34.9v127.5H999v-14.3
                                    c-8.4,9.9-21.9,16.8-38.5,16.8C933.4,315.4,899,294,899,249.1z M1000,248.9c0-18.9-13.8-34.2-32.6-34.2
                                    c-19.4,0-34.2,14.5-34.2,34.2s14.8,34.4,34.2,34.4C986.2,283.3,1000,267.7,1000,248.9z"/>
                                <path class="st0" d="M1048,185.4h34.7v14.3c8.2-10.5,20.7-16.8,35.2-16.8c30.1,0,48.2,19.4,48.2,52.3v77.8h-35.5v-73.2
                                    c0-17.1-7.9-27-23.5-27c-13.3,0-24.2,9.2-24.2,30.6v69.6H1048V185.4z"/>
                                <path class="st0" d="M781.7,312.9v-31.1l67.1-65.5h-66.1v-30.9h113v31.4L828.6,282"/>
                                <path class="st0" d="M273.7,248l-0.5,1c-9.6,20.3-27.4,32-48.7,32c-30.9,0-55-24.4-55-55.5c0-31.9,24-56,55.8-56
                                    c20.6,0,36.3,9.7,46.5,28.7l0.5,1l31.1-19.9l-0.5-0.9c-16.2-27.5-45.2-43.9-77.7-43.9c-51.9,0-91,39.1-91,91
                                    c0,52.7,38.3,91,91,91c34,0,64-18.9,80.3-50.5l0.5-0.9L273.7,248z"/>
                            </g>
                        </g>
                    </g>
                    <g>
                        <g>
                            <g>
                                <path class="st0" d="M451.9,249.1c0-45.1,33.2-66.3,62-66.3c16.6,0,29.6,6.9,38,16.3v-13.8h34.9v124c0,36-22.7,65-65.8,65
                                    c-32.4,0-56.1-16.8-66.3-36.7l30.9-17.3c6.6,13.3,18.4,21.7,35.4,21.7c18.9,0,30.9-14.8,30.9-31.4v-12
                                    c-8.4,9.9-21.9,16.8-38.5,16.8C486.3,315.4,451.9,294,451.9,249.1z M552.9,248.9c0-18.9-13.8-34.2-32.6-34.2
                                    c-19.4,0-34.2,14.5-34.2,34.2s14.8,34.4,34.2,34.4C539.1,283.3,552.9,267.7,552.9,248.9z"/>
                            </g>
                        </g>
                    </g>
                </g>
                <g>
                    <path class="st0" d="M1252.2,216.7v-31.4h-24v-42.1h-34.9v42.1h-21.7v31.4h21.7v40.8c0,41.6,13.3,55.3,53.8,55.3h5.1v-32.6
                        c-21.4,0-24-3.1-24-23v-40.6H1252.2z"/>
                </g>
            </g>
        </g>
    </g>
</g>
</svg>
